<?xml version="1.0" encoding="UTF-8"?>
<svg id="Layer_1" data-name="Layer 1" xmlns="http://www.w3.org/2000/svg" viewBox="0 0 134.51 27.73">
  <defs>
    <style>
      .cls-1 {
        fill: #39b54a;
        stroke-width: .5px;
      }

      .cls-1, .cls-2 {
        stroke: #39b54a;
        stroke-miterlimit: 10;
      }

      .cls-2 {
        fill: rgba(57, 181, 74, .5);
        stroke-width: 2px;
      }
    </style>
  </defs>
  <polygon class="cls-1" points="133.56 11.94 119.45 15.44 105.33 18.94 105.58 3.57 119.57 7.75 133.56 11.94"/>
  <path class="cls-2" d="M106.75,11.13c-2.03-.79-5.16-1.55-8.6-.27-7.93,2.95-10.34,14.08-14.1,12.87-1.14-.37-4.52-4.27-7.33-14.7-3.83-14.2-8.57,5.94-13.03,15.57-4.46,9.63-7.88-19.75-11.99-23.32-4.11-3.57-9.17,28.79-13.28,25.17-4.1-3.62-7.52-32.99-11.99-23.32-4.46,9.67-9.2,29.79-13.03,15.56C11.06,9.98,8.65,3.86,6.08,3.99c-1.15.06-2.81,1.49-5.12,8.7"/>
</svg>