<?xml version="1.0" encoding="UTF-8"?>
<svg id="Layer_1" data-name="Layer 1" xmlns="http://www.w3.org/2000/svg" xmlns:xlink="http://www.w3.org/1999/xlink" viewBox="0 0 200 200">
  <defs>
    <style>
      .cls-1, .cls-2 {
        fill: none;
      }

      .cls-3 {
        fill: #006cb7;
      }

      .cls-4 {
        fill: #010101;
      }

      .cls-2 {
        stroke: #006cb7;
        stroke-miterlimit: 10;
        stroke-width: 2px;
      }

      .cls-5 {
        fill: #0c6db6;
      }

      .cls-6 {
        clip-path: url(#clippath-1);
      }

      .cls-7 {
        clip-path: url(#clippath-2);
      }

      .cls-8 {
        opacity: .5;
      }

      .cls-9 {
        clip-path: url(#clippath);
      }
    </style>
    <clipPath id="clippath">
      <rect class="cls-1" x="56.21" y="26.67" width="90.69" height="152.9"/>
    </clipPath>
    <clipPath id="clippath-1">
      <rect class="cls-1" x="145.04" y="91.2" width="2" height="87.87"/>
    </clipPath>
    <clipPath id="clippath-2">
      <rect class="cls-1" x="56.48" y="25.58" width="90.15" height="65.71"/>
    </clipPath>
  </defs>
  <path class="cls-3" d="M115.1,88.32c-.66-.82-1-1.03-1.45-1.93-.27-.54-.93-.76-1.47-.49-.54.27-.76.93-.49,1.47.27.54.93.76,1.47.49.54-.27.76-.93.49-1.47-.54-1.02-.6-2.79-.9-4.45-.41-2.23-1.57-4.91-3.6-6.45-2.03-1.35-4.57-1-6.09-1.39-.32-.07-.49-.18-.87-.39-1.28-.75-2.87-1.56-3.61-2.6-1.11-1.34-.87-3.55-1.55-6.18-.25-.88-.65-1.81-.95-2.5-.22-.51-.4-1.08-.79-1.67-.79-1.05-2.19-1.71-3.44-2.05-1.25-.33-2.61-.51-3.63-.68-2.54-.41-4.74-1.63-6.41-3.87-.32-.42-.44-.86-.68-1.54-.67-1.72-1.21-3.85-2.46-6.05-.7-1.2-1.72-2.39-2.82-3.24-1.19-.85-2.66-1.19-4.07-1.38-2-.28-3.39-.68-4.37-1.85-1.22-1.25-1.14-2.63-1.37-4.47-.27-2.11-1.37-5.04-3.19-7.15-.76-.85-1.78-1.62-2.64-2.03-.52-.22-1.19-.32-1.62-.32-.86,0-1.02-.12-1.18-.03-.49.28-.63,1.14-.42,1.76.09.28.27.55,1.42,1.36,1.23.87,1.52.86,2.07,1.38.27.25.87.87,1.44,1.88.58,1.03.92,2.17,1.11,3.54.24,1.67.42,4.02,2.19,6.05,1.59,1.66,3.93,2.42,6.16,2.72,1.32.18,2.07.3,2.72.83.86.63,1.52,1.4,2.07,2.37,1.09,1.85,1.54,3.75,2.28,5.66.26.62.59,1.43,1.17,2.18,2.08,2.62,5.17,4.3,8.17,4.79,1.09.17,2.33.31,3.4.59,1.07.27,1.73.52,2,.99.2.26.29.59.56,1.22.3.7.64,1.47.83,2.18.65,2.19.54,4.81,2.1,6.96,1.17,1.45,3.11,2.47,4.34,3.17.42.24.94.49,1.51.63,2.03.44,4.14.03,5.28.98,1.58,1.08,2.4,3.04,2.76,5.01.6,3.25.31,3.6,1.12,5.03,2.02,3.61,8.2,3.93,8.23,3.81.01-.05-.93-.25-2.41-1.1-1.21-.69-1.83-1.04-2.41-1.77"/>
  <path class="cls-3" d="M146.24,176.29c0-.08-.13-.1-.4-.39-.08-.09-.16-.19-.29-.35-.35-.44-.98-.52-1.42-.17-.44.34-.52.98-.17,1.42s.98.52,1.42.17c.44-.34.52-.98.17-1.42-.65-.84-.88-1.8-.81-3.08.01-.61-.47-1.11-1.07-1.12-.61-.01-1.11.47-1.12,1.07-.01.61.47,1.11,1.07,1.12.61.01,1.11-.47,1.12-1.07,0-1.15.77-2.75,1.29-4.36.68-2.16.9-5.07-.18-7.39-1.17-2.14-3.57-3.01-4.73-4.07-.24-.21-.36-.38-.58-.75-.78-1.25-1.81-2.72-1.98-3.98-.35-1.71.89-3.55,1.51-6.19.19-.9.27-1.9.33-2.65.05-.56.15-1.14.09-1.84-.21-1.3-1.14-2.53-2.09-3.42-.95-.88-2.07-1.67-2.9-2.3-2.05-1.55-3.43-3.65-3.86-6.42-.09-.52.02-.97.12-1.68.21-1.84.73-3.97.65-6.5-.06-1.39-.41-2.92-.99-4.18-.66-1.31-1.8-2.3-2.95-3.12-1.64-1.18-2.68-2.18-3-3.67-.33-1.56.32-2.43.88-4.58.31-1.21,1.2-4.67-.02-7.75,0,0-1.82-4.55-7.88-6.8-.09-.03-.36-.12-.72-.31-.76-.39-.94-.7-1.31-.83-.34-.11-.89-.09-1.81.62,1.38.91,2.44,1.6,2.97,1.94,3.06,1.99,4.02,2.6,5,3.89.71.95,1.03,1.73,1.19,2.19.12.35.37,1.18.4,2.34.03,1.18-.2,2.35-.67,3.64-.57,1.59-1.5,3.75-.89,6.38.64,2.21,2.35,3.98,4.18,5.28,1.08.77,1.69,1.24,2.01,2,.46.96.69,1.94.73,3.06.1,2.15-.39,4.04-.62,6.07-.06.67-.15,1.54.02,2.48.62,3.29,2.57,6.22,4.99,8.05.88.66,1.91,1.36,2.73,2.11.82.74,1.29,1.26,1.3,1.81.06.33-.02.66-.07,1.34-.06.76-.12,1.6-.28,2.31-.45,2.24-1.77,4.5-1.39,7.13.36,1.83,1.6,3.64,2.36,4.83.26.41.6.87,1.04,1.26,1.59,1.34,3.65,1.96,4.21,3.32.9,1.69.7,3.81.1,5.72-.45,1.45-1.3,3.3-1.36,4.97-.02.41-.15,3.71,1.41,4.38.94.4,2.29-.25,2.28-.51"/>
  <path class="cls-3" d="M144.41,175.49c-.38.04-.65.38-.61.76.04.36.55.53.76.61,1.29.47,4.03-.14,4-.75-.02-.54-2.26-1.19-4.16-.63-.42.12-.76.29-1.02.44-.29.32-.28.81.04,1.1.32.29.81.28,1.1-.04s.28-.81-.04-1.1c-.32-.29-.81-.28-1.1.04-.46.44-.8,1.17-.98,1.84-.1.52.25,1.02.77,1.12.52.1,1.02-.25,1.12-.77.09-.52-.25-1.02-.77-1.12-.52-.09-1.02.25-1.12.77-.1.58-.21,1.38-.01,2.15.2.77.77,1.16,1.36,1.66.38.32.63.46.87.55.36.13.69.15,1.05.14,1.03-.03,1.8-.02,2.51-.56.63-.47,1.17-1.29,1.36-2.08.18-.79.16-1.87-.21-2.69-.35-.78-1.08-1.06-1.27-1.16-1.76-.87-3.71.34-3.87.44-.69.69-.93,1.75-1,2.43-.05.47-.15,1.11-.01,1.73.11.32.4.7.63.87.22.15.54.27.77.33.45.1,1.02.1,1.43.03.92-.16,1.78-.86,2.21-1.62.27-.46.55-1.16.59-1.85.02-.45-.03-1.16-.36-1.75-.31-.35-.87-.6-1.18-.63-.29-.02-.66.03-.93.09-.53.14-1.16.42-1.57.71-.47.39-.79,1.08-.85,1.55-.05.47.02,1.02.12,1.42.12.41.25,1.07.65,1.62.26.3.75.55,1.07.6.31.03.71,0,1-.07.56-.16,1.21-.51,1.65-.87.64-.58,1.04-1.54,1.15-2.23.09-.94-.43-1.98-1-2.48-.47-.3-1.16-.41-1.59-.37-.42.06-.92.22-1.24.39-.51.33-.89.97-1,1.42-.09.44-.09.99-.02,1.37.11.53.48,1.15.89,1.48.45.28,1.07.34,1.45.27.37-.08.79-.25,1.06-.4.57-.35.97-1.06,1.06-1.54.01-.32-.13-.76-.26-.96-.14-.17-.36-.37-.52-.48-.32-.2-.79-.37-1.17-.43-.77.03-1.55.51-1.97.98-.4.47-.77,1.14-.93,1.69-.13.6-.08,1.36.12,1.85.1.22.36.52.53.63.17.09.43.18.6.2.3.03.7,0,1-.08.58-.16,1.31-.55,1.75-1.01.38-.42.61-1.11.63-1.61,0-.5-.19-1.16-.48-1.6-.34-.38-.9-.64-1.26-.72-.35-.07-.77-.08-1.05-.07-.66.12-1.36.61-1.7,1.09-.36.48-.25,1.16.23,1.52.48.35,1.16.25,1.52-.23.36-.48.25-1.16-.23-1.52-.48-.36-1.16-.25-1.52.23-.31.47-.55,1.14-.63,1.72-.09.56.29,1.08.85,1.17.56.09,1.08-.29,1.17-.85.09-.56-.29-1.08-.85-1.17-.56-.09-1.08.29-1.17.85.01.58.16,1.27.44,1.78.14.37.56.56.93.42.37-.14.56-.56.42-.93-.17-.45-.86-.54-.93-.42-.05.09.21.41,1.31,1.24-.3-.23-.36-.47-.38-.82-.03-.32.06-.6.23-.94.07-.35.17-.56.36-.76.15-.19.09-.15.14-.09.2-.03.35-.05.5-.03.14,0,.03-.08-.04-.13.1.06.14.1.16.3.04.21.07.24,0,.32-.16.2-.47.34-.84.42-.17.04-.22.05-.27.03-.01,0,.09.03.15.05.05.04.22.24.27.33-.04-.15,0-.3.12-.56.09-.3.26-.58.51-.85.24-.27.22-.29.17-.21.13-.02.21-.03.32.01.05.01,0-.04-.01-.07-.01-.05-.1-.33-.1-.49.03.1.07.12-.02.15-.17.09-.33.15-.51.17-.17.03-.07.06.03.06-.09-.06-.08-.1-.07-.3-.02-.21,0-.36.06-.55.05-.18-.02-.08,0-.02.17-.09.3-.15.49-.16.18-.03.09-.07.04-.05.24.11.37.23.31.49-.03.45-.14.83-.41,1.03-.26.23-.56.38-.89.45-.15.04-.18.04-.24.03-.04,0,.14.1.19.13-.09-.08-.1-.4-.2-.92-.06-.26-.07-.45-.02-.65.03-.19-.03-.1,0-.07.21-.15.51-.29.84-.36.16-.04.2-.05.24-.03.02,0-.27-.15-.43-.29.08-.02.08.12.1.52.04.28-.06.54-.24.92-.22.47-.38.63-.79.66-.25.03-.49.03-.7-.04-.1-.03-.09-.02-.1-.04-.01,0,.11.17.15.23-.06-.13.03-.46.1-1,.08-.6.13-1.01.34-1.07.27-.25.53-.33.95-.29.3,0,.53.02.78.12.25.08.29.08.32.17.23.36.25.84.14,1.41-.08.47-.25.75-.61,1.01-.35.28-.63.38-1.15.28-.47-.09-.88-.24-1.24-.49-.36-.23-.5-.37-.53-.63-.11-.35,0-.74.11-1.31.03-.55.09-.91.23-1.12.05-.11-.02-.11.03-.13.07-.05.09-.08.28.02.5.02.77-.04.83-.19.08-.22-.34-.62-1.26-1.2"/>
  <path class="cls-3" d="M55.44,22.82c-.38.04-.65.38-.61.76.04.36.55.53.76.61,1.29.47,4.03-.14,4-.75-.02-.54-2.26-1.19-4.16-.63-.42.12-.76.29-1.02.44-.29.32-.28.81.04,1.1.32.29.81.28,1.1-.04.29-.32.28-.81-.04-1.1-.32-.29-.81-.28-1.1.04-.46.44-.8,1.17-.98,1.84-.1.52.25,1.02.77,1.12.52.1,1.02-.25,1.12-.77.09-.52-.25-1.02-.77-1.12-.52-.1-1.02.25-1.12.77-.1.58-.21,1.38-.01,2.15.2.77.77,1.16,1.36,1.66.38.32.63.46.87.55.36.13.69.15,1.05.14,1.03-.03,1.8-.02,2.51-.56.63-.47,1.17-1.29,1.36-2.08.18-.79.16-1.87-.21-2.68-.35-.78-1.08-1.06-1.27-1.16-1.76-.87-3.71.34-3.87.44-.69.69-.93,1.75-1,2.43-.05.47-.15,1.12-.01,1.74.11.32.4.71.63.87.22.15.54.27.77.33.45.1,1.02.1,1.43.03.92-.16,1.78-.86,2.21-1.62.27-.46.55-1.16.59-1.85.02-.45-.03-1.16-.36-1.75-.31-.35-.87-.6-1.18-.63-.29-.02-.66.03-.93.1-.53.14-1.16.42-1.57.71-.47.39-.79,1.08-.85,1.55-.05.47.02,1.02.12,1.42.12.41.25,1.07.65,1.62.26.3.75.54,1.07.6.31.03.71,0,1-.07.56-.16,1.21-.51,1.65-.87.64-.58,1.04-1.54,1.15-2.24.09-.94-.43-1.98-1-2.48-.47-.3-1.16-.41-1.59-.37-.42.06-.92.22-1.24.39-.51.33-.89.97-1,1.42-.09.44-.09.99-.02,1.37.11.53.48,1.15.89,1.48.45.28,1.07.34,1.45.27.37-.08.79-.25,1.06-.4.57-.35.97-1.06,1.06-1.54.01-.32-.13-.76-.26-.96-.14-.17-.36-.37-.52-.48-.32-.2-.79-.37-1.17-.43-.77.03-1.55.51-1.97.98-.4.47-.77,1.14-.93,1.69-.13.6-.08,1.36.12,1.85.1.22.36.52.53.63.17.09.43.18.6.2.3.03.7,0,1-.09.58-.16,1.31-.55,1.75-1.01.38-.42.61-1.11.63-1.61,0-.5-.19-1.16-.48-1.6-.34-.38-.9-.64-1.26-.72-.35-.07-.77-.08-1.05-.07-.66.12-1.36.61-1.7,1.09-.36.48-.25,1.16.23,1.52.48.35,1.16.25,1.52-.23.36-.48.25-1.16-.23-1.52s-1.16-.25-1.52.23c-.31.47-.55,1.14-.63,1.72-.09.56.29,1.08.85,1.17.56.09,1.08-.29,1.17-.85.09-.56-.29-1.08-.85-1.17-.56-.09-1.08.29-1.17.85.01.58.16,1.27.44,1.78.14.37.56.56.93.42.37-.14.56-.56.42-.93-.17-.45-.86-.54-.93-.42-.05.09.21.41,1.31,1.24-.3-.23-.36-.47-.38-.82-.03-.32.06-.6.23-.94.07-.35.17-.56.36-.76.15-.19.09-.15.14-.09.2-.03.35-.05.5-.03.14,0,.03-.08-.04-.13.1.06.14.1.16.3.04.21.07.24,0,.32-.16.2-.47.34-.84.42-.17.04-.22.05-.27.03-.01,0,.09.04.15.05.05.04.22.24.27.33-.04-.15,0-.3.12-.56.09-.29.26-.58.51-.85.24-.27.22-.29.17-.21.13-.02.21-.03.32.01.05.01,0-.04-.01-.07-.01-.05-.1-.33-.1-.49.03.1.07.12-.02.15-.17.09-.33.15-.51.17-.17.03-.07.06.03.06-.09-.06-.08-.1-.07-.3-.02-.21,0-.37.06-.55.05-.18-.02-.08,0-.02.17-.09.3-.15.49-.16.18-.03.09-.07.04-.05.24.11.37.23.31.49-.03.45-.14.83-.41,1.03-.26.23-.56.38-.89.45-.15.04-.18.04-.24.03-.04,0,.14.1.19.13-.09-.08-.1-.4-.2-.92-.06-.26-.07-.45-.02-.65.03-.19-.03-.1,0-.07.21-.15.51-.29.84-.36.16-.04.2-.05.24-.03.02,0-.27-.15-.43-.29.08-.02.08.12.1.52.04.28-.06.54-.24.92-.22.47-.38.63-.79.66-.25.03-.49.03-.7-.04-.1-.03-.09-.02-.1-.04-.01,0,.11.17.15.23-.06-.13.03-.46.1-1,.08-.6.13-1,.34-1.07.27-.25.53-.33.95-.29.3,0,.53.02.78.12.25.08.29.08.32.17.23.36.25.84.14,1.41-.08.47-.25.75-.61,1.01-.35.28-.63.38-1.15.28-.47-.09-.88-.24-1.24-.49-.36-.23-.5-.37-.53-.63-.11-.35,0-.74.11-1.31.03-.54.09-.91.23-1.12.05-.11-.02-.11.03-.13.07-.05.09-.08.28.02.5.02.77-.04.83-.19.08-.22-.34-.62-1.26-1.2"/>
  <g class="cls-8">
    <g class="cls-9">
      <line class="cls-2" x1="57.07" y1="27.18" x2="146.04" y2="179.07"/>
    </g>
  </g>
  <g class="cls-8">
    <g class="cls-6">
      <line class="cls-2" x1="146.04" y1="179.07" x2="146.04" y2="91.2"/>
    </g>
  </g>
  <g class="cls-8">
    <g class="cls-7">
      <path class="cls-2" d="M146.04,90.48L57.06,26.39l88.98,64.08Z"/>
    </g>
  </g>
  <path class="cls-4" d="M19.6,91.27c-.44,0-.8-.36-.8-.8s.36-.8.8-.8h163.34c.44,0,.8.36.8.8s-.36.8-.8.8H19.6Z"/>
  <path class="cls-3" d="M37.63,32.2c.33-1.42,1.12-2.7,1.66-4.06,0,0,.17-.43,1.69-3.83-.22.49.38-1,.61-1.47.17-.34.28-.63.36-.78.04-.07.03-.04,0,0-.05.06-.44.27-.71.31-.19-.04-.47-.17-.53-.22-.04-.04-.09-.1-.08-.08.03.05.06.13.12.31.12.35.26.83.4,1.31.57,1.91,1.34,4.51,1.96,6.61.19.65.39,1.28.56,1.82.12.38.21.84.52,1.38.31.55.56.7.68.76.04.02.65.32,1,.08.56-.38.19-1.87-.08-2.93-.2-.79-.43-1.34-.56-1.75-.65-2.09-1.46-4.69-2.07-6.59-.14-.44-.29-.96-.45-1.39-.08-.22-.19-.47-.3-.65-.06-.1-.18-.26-.29-.37-.13-.11-.48-.29-.75-.33-.38.03-.86.3-1,.47-.1.15-.2.34-.25.47-.17.42-.27.75-.29.8-.13.5-.51,1.38-1.07,2.7-2.32,5.47-3.12,7.46-2.42,8.2.04.04.35.36.65.3.4-.09.55-.81.61-1.06"/>
  <path class="cls-3" d="M38.91,28.55c2.03.64,3.54.94,4.52,1.09.54.08,1.21.17,1.49-.2.24-.31.12-.88-.14-1.23-.26-.34-.64-.44-.8-.49-.86-.23-2.48-.62-4.59-1.08"/>
  <path class="cls-3" d="M177.57,163.04c.6.05,1.21.1,1.81.15"/>
  <g>
    <path class="cls-5" d="M160.42,184.96c-.19-.23-.37-.64-.54-1.13-.08-.42.19-.83.62-.91.42-.08.83.19.91.62.08.42-.19.83-.62.91-.42.08-.83-.19-.91-.62-.23-.99-.45-2.47-.63-3.92-.05-.49.32-.93.81-.98.49-.05.93.32.97.81.05.49-.32.93-.81.97-.49.05-.93-.32-.98-.81-.14-1.22-.25-2.45-.31-3.39-.02-.54.4-.99.95-1.01.54-.02.99.41,1.01.95.02.54-.41.99-.95,1.01-.54.02-.99-.41-1.01-.95,0-.48,0-.9.03-1.22.01-.16.04-.33.06-.46.03-.14.14-.42.35-.67.21-.13.79-.21,1.03-.11.42.21.59.71.39,1.13-.2.42-.71.59-1.13.39-.42-.2-.59-.71-.39-1.13.2-.42.71-.59,1.13-.39.15.12.3.3.33.39.23.36.12.85-.24,1.08-.36.23-.85.12-1.08-.24-.23-.36-.12-.85.24-1.08.36-.23.85-.12,1.08.24.04.14.07.33.08.5.11.34-.08.71-.42.82-.34.11-.71-.08-.82-.42-.11-.34.08-.71.42-.82s.71.08.82.42c.01.32.04.81.09,1.49.04.22-.1.43-.31.47-.22.04-.43-.1-.47-.31-.21-.63-.4-1.03-.55-1.25-.08-.1-.12-.1-.15-.06,0,.04.12.19.24.29.21.09.77.01.95-.09.16-.21.23-.37.23-.34,0,.05,0,.11,0,.24,0,.26.01.62.04,1.07,0,.91.05,2.09.14,3.29.1,1.44.23,2.85.37,3.79.02.48.03.78.02.91.14.28.03.62-.25.76-.28.14-.62.03-.76-.25"/>
    <path class="cls-5" d="M161.41,183.53c.33.18.87.44,1.58.54.51.07,1.28.19,2.08-.2.69-.33,1.51-1.09,1.52-1.84.01-1.09-1.66-2.38-4.28-2.51-.08-.17-.16-.4-.21-.69-.04-.24-.04-.47-.02-.6.07-.2.19-.44.27-.55.14-.18.32-.36.46-.49.41-.37.69-.6.78-.67.27-.23.6-.61.86-1.29-1.62-.46-2.51-.2-3.04.14-.4.26-.64.61-.98.56-.54-.07-.86-1-1.05-1.78.13-.5.43-1.3,1.14-1.64.21-.1.32-.1,1.28-.17,1.69-.12,1.87-.16,2.41-.11.4.04.96.15,1.36.34.72.34,1.03,1.15,1.13,1.43,0,.01.01.04.02.06.39,1.3-1.63,2.78-1.23,3.72.14.33.41.19,1.48,1.18.2.19.33.28.44.43.43.6.84,1.53.91,2.34.11,1.29-.56,2.29-.93,2.74-1.26,1.52-3.98,1.9-6.65.74"/>
  </g>
</svg>