<?xml version="1.0" encoding="UTF-8"?>
<svg id="Layer_1" data-name="Layer 1" xmlns="http://www.w3.org/2000/svg" viewBox="0 0 458.04 638.66">
  <defs>
    <style>
      .cls-1 {
        fill: #1c75bc;
      }
    </style>
  </defs>
  <path class="cls-1" d="M184.12,29.81c-.46.52-3.03-1.38-.99,3.01l-4,.02,1.98,4.52c1.12.9,3.01-1.88,4.49-2.06.69-.09,9.21.18,9.52.54.27.32-.32,2.29.04,3.23.14.35,3.89,2.71,1.97,4.76-.53.57-13.31-.09-15.49-1.01-1.06,5.08,7.93,3.43,10.93,4.07,3.9.82,8.18,2.99,12.55,2.96.38,1.28-9.71,3.42-6,5.49,2.01,1.13,3.74-.94,5.4-.44,1.35.41,1.26,2.89,2.19,2.97,1.47.14,4.82-1.82,7.75-1.08,1.74.44.62,6.31,4.67,3.54l-2.01-5.49c4.94.39,2.18-.56,2.35-3.36.29-4.73,11-3.07,14.66-1.62.23,3.21-6.54,5.35-7,6-.58.83.58,2.61,1.64,2.9,2.9.79,7.54-5,11.86-4.98,2.5.01,13.39,5.11,14.49,4.06,1.49-6.09-10.72-3.9-10.98-7.49-.15-2.04,3.61-.68,3.8-.76s.6-2.63,2.68-2.38,5.09,4.54,6.48,5.1c.96.39,2.5-.69,2.9-.4.29.21,1.81,5.78,3.63,5.92,2.28.18.34-3.85.5-3.97.78-.59,3.68,1.34,5.01.56l3.98-5.05c-1.2-2.19-11.91-3.09-15-4.03-.95-.29-2.27-.17-1.99-1.47,3.21-1.38,5-4.39,8.11-6.4,1.71-1.1,5.14-1.6,6.25-2.55s-.07-3.85,3.14-3.65c4.98.31,5.74,4.03,7.84,5.21,2.94,1.66,5.93,3.23,8.62,4.82,1.2.71,7.89-1.52,5.03,2.55,6.99-1.23,14.18,3.58,20.96,5.55s14.18,1.45,20.04,5.97c.56,2.19-1.36,1.14-2.5.93-19.28-3.54-57.15-4.87-74.8,3.79-1.55.76-1.55,2.6-2.94,3.11-7.87,2.92-17.32,4.78-25.98,8.74-7.48,3.42-11.4,6.06-19.97,9.23-3.35,1.24-6.43,4.71-9.28,5.8-2.5.96-4.39-.31-4.52-.12-.24.36.58,2.01-.63,3.09-.38.34-7.25,5.24-8.18,5.83-2.24,1.4-8.17,1.04-5.69,5.1,4.48-.36,6.79-2.89,11.49-1.01l-1-4.99c10.82-2.36,5.58,5.34-.49,8l-5.5,5.98h5.99c-1.99-4.68-.11-2.02,1.93-3.56.86-.65,1-1.97,1.8-2.52.36-.25,5.47-.46,4.28-1.9-.31-.37-2.39.82-1.99-1,5.03.17,6.46-4.34,9.62-6.84,4.73-3.72,10.7-8.43,16.37-10.2l-1.01-1.97c3.52.88,5.72-2.39,8.16-4.36.73-.59,2.2-.44,2.63-.93.65-.72.02-2.51.22-2.73.37-.42,2.62,1.01,3.42,1.02.41,0,5.04-5.35,5.85-5.72,3.07-1.4,10.85-2.68,14.97-4.37.95-.39.7-2.05,1.22-1.94.65.14,1.68,1.65,3.02,1.67,1,.01,8.81-3.95,11.22-4.41,19.55-3.7,44.65-3.62,64.53,1,2.23.52,2.2,3.62,3.25-.25.62.71,1.39,1.42,2.29,1.71,22.67,7.36,51.17,21.2,69.23,36.77,19.49,16.82,51.41,56.49,43.73,83.75-4.74,16.82-25.66,19.02-40.26,20.74-6.34.75-12.52-2.99-13.5,5.5-1.63,14.16,1.14,30.35,2.02,44.52-2.24-.69-10.95,1.47-12-.03-.11-.16,1.63-1.99.06-3.47-2.26-2.13-6.22-.68-9.06-1.52l2.99-1.48c-4.28-4.6-8.78-4.02-14.28-4.72-1.14-.15-2.3-1.46-3.39-1.56-1.16-.11-20.01,4.98-22.59,5.85-.84.28-.69,1.71-1.45,1.9-4.26,1.04-11.56.42-3.3,5.53-.87,2.23-8.82,3.95-10.69,5.81-1.28,1.28-3.59,6.92.05,6.58,2.84-.26,8.94-7.79,13.64-5.39-6.71,3.45-10.67,8.98-15.5,14.5-1.36-8.04-5.51,2.69-7.03,4-2.42,2.09-4.15-.73-2.98,4.02-2.54-.34-2.95-1.79-1.98-3.98,1.62-3.65,8.11-10.02,11.48-12.52-4.85-6.1-5.09.5-7.94,1.12-1.83.4-3.43-.58-4.44-.37-1.42.3-2.24,2.76-4.11,2.79-4.61.07-.8-4.6-.56-6.59.93-7.93-.42-16.59,3.06-24.44l3.98,1.99c1.1-2.59-2.04-1.79-2.05-2.5-.08-3.68,4.17-3.67,4.06-5.98l-2,.5c-.3-6.84,9.26-5.11,11.5-11.01l.99,2.99c2.62-1.05,4.15-6.69,5.51-7.49.34-.2,7.07-2.38,7.55-2.45,3.58-.55,7.77.28,11.44-.06-1.02-2.63-5.76-1.86-7.99-2l4.99-5.5c1.01-2.66-4.24-.4-2.98-2.97,1.11-2.27,7.48-1.53,5.9-4.44-1.36-2.51-9.45-2.33-12.3-4.18-9.87-6.39-5.27-7.91-19.88-10.11-1.66-.25-3.99-1.92-5.18-1.85-.51.03-.6,2.1-1.07,2.14-1.63.15-10.53-8.54-11.49-2.08h-.97c.37-3.2-1.43-1.24-2.43-1.56-4.67-1.46-7.91-4.02-8.09,2.58-4.1-3.02-7.21-5.5-12.84-4.02-.88.23-.71,4.9-2.67-1-1.72.9-2.53,2.15-4.63,2.65-6.06,1.43-17-3.6-22.76-2.64-1.01.17-.14,2.03-1.08,1.99-2.35-.8-2.31-4.76-2.52-5.01s-3.7,1.72-6.32,1.01c-.78-.21-.62-2.03-1.24-2.03-6.52.02-5.96-2.41-11.6-4.3-3.39-1.14-7.54-1.27-11.06-1.93-2.49-.46-3.34-2.53-6.81-1.34-2.34.8-8,7.92-8.7,10.35-.62,2.16-1.17,5.85,1.74,5.27v.97c-5.21-.18-5.94,4.49-7.76,6s-7.68,1.86-8.07,2.18c-.48.39-.23,3.47-2.16,4.4-1.24.6-2.85-.65-4.27-.37-1.7.34-5.43,4.02-8.01,5.02s-6.69.82-8.68,2.33-3.35,7.27-4.33,8.17c-.7.64-2.66.34-3.26,1.21-.95,1.37-.04,4.15-.94,6.08-.36.76-12.38,8.42-10.51,9.98,8.07-.86,5.52.02,8.53,4,.7.92,3.94.95,2.34,2.92-.14.17-4.38.32-.88,2.63.8.53,5.42-.5,7,.46l-2.99,1.98c4.59,1.5,3.56-2.66,6.99-2.98l-2.48,5c4.54-1.94,6.33-7.3,11.48-3.01-2.29-4.69.74-2.3,4.49-4l-.48,3.99c2.54,1.63,7.42-4.78,9.05-5.52,1.53-.69,3.34,1.71,2.97-1.46,4.73,5.08,9.49-.76,13.54-.98,3.12-.17,7.4,3.31,5.46-3.03.43-.49,6.42,2.92,7.51,2.95s2.2-1.33,3.57-1.46c9.39-.86,9.53,7.39,17.91,9.5,1.11-1.19-4.54-7.6-1.01-8.99,2.64,4,2.06,11.3,3.74,14.77.76,1.57,2.21,1.85,3.2,2.85,1.07,1.08,1.16,3.91,3.09,1.87-1.74-2.56-.02-4.76.06-7.06.06-1.46-3.6-2.08-2.07-5.43,3.48.51,2.69,7.69,3,8,.14.14,3.52.16,3.9-.09.71-.48.19-4.19.82-5.58,2.54-5.63,3.32-1.47,7.25-.31.45,1.81-2.04.35-2.01,1.5.04,1.91,4.33,6.65,4.03,7.97-.25,1.11-2.92,1.4-3.01,1.54-.38.57,5.39,7.57-1.68,9.61-4.43,1.28-3.2,1.6-5.08,2.34-5.87,2.3-6.28-1.88-9.18-2.56-1.17-.27-2.39,1.72-4.47,1.62-1.58-.08-2.97-1.63-4.31-1.82-18.64-2.62-35.45-5.2-54.32-1.77-3.64.66-14.33,2.78-17.17,3.83-2.29.84-5.03,4.54-5.52,4.67-1.78.5-8,.29-9.07,1.24-.74.66-.92,5.54-1.22,5.79-.69.58-3.71-.77-5.1-.47s-4.6,3.41-6.33,4.53c-3.52,2.26-8.1,1.18-5.54,6.96-3.5-2-15.75,7.37-17.93,4.99-1.55-1.69-.53-5.02,1.98-5.69,1.46-7.71,5.97-12.95,10.91-18.86.94-1.79-2.22-1.16-1.95-1.92,3.74-1.82,4.27-1.32,6.65-4.78.24-.35-.61-1.34-.45-1.53,1.26-1.44,7.01-3.28,8.3-6.19l.5,1.99c1.05,1,7.73-10.95,8.54-11.97,1.91-2.39,4.99-1.39,2.23-5.37-.94-1.34-4.46-1.92-6.07-1.47-3.74,1.05-2.66,6.72-4.2,6.78-.82.04-2.99-2.08-6.54-1.58-.85.12-9.5,2.86-9.95,3.13-1.06.65-1.08,2.7-2.69,3.3-.43.16-8.38,2.11-8.92,2.17-4.95.56-5.92-3.32-8.11-3.84-2.07-.49-4.4,1.35-6.23,1.39-1.46.03-2.4-1.64-3.43-1.45-.74.14-11.83,5.85-13.14,6.9-5.59,4.47-2.71,4.85-4,7.95-.87,2.1-4.96,5.27-4.51,9.04l-2.98-2c1.83,5.41-3.02,8.84-3.58,12.95-.39,2.84-.74,5.91-1.07,8.72-.21,1.79-1.39,10.25-1.26,10.78.42,1.57,3.14.86,2.89,2.55-2.98-.41-3.43.08-3,3.01-2.28.59-3.57-1.68-5.55-1.96-1.73-.25-4.47,1.33-6.8,0-1.68-.96.67-3.33-2.16-3.06-.93.09-6.45,4.12-6.47,4.52-.15,3.05,9.54.29,11.47.42,4.39.31,10.02,4.12,15.51,2.09l-2.81,1.14c.2,3.89-3.62,8.41-3.87,11.47-.5,6.19,2.9,12.11,3.63,16.93.95,6.27.52,12.97.55,18.88.03,6.59,2.15,4.89,3.5,6.59,2.01,2.52-2.82,1.81-2.99,1.98-.3.31,1.77,7.29,2.07,8.24s1.75.74,1.91,1.44c.63,2.89-1.63,6.98,3.02,7.33-1.19,2.93-5.54,2.38-3.91,6.38.61,1.48,3.99.79,5.58,6.42,1.21,4.29-.28,8.23.54,11.43.7,2.73,4.49,5.04,5.26,6.78.98,2.23.48,5.53,1.53,7.98l2.98-1.01c-1.71,4.94,2.37,9.11,2.96,12.55,1.04,6.02,1.9,9.6,3.04,14.13.52,2.08-.31,5.05.02,7.31l2.98-2.99c-1.46,9.65,5.69,4.04,7,5,1.48,2.19-.25,4.93-.06,6.34.14,1.01,2.68,1.02,3.55,2.65,1.1,2.05,1.05,5.69.52,8,1.43,1.42,1.82-.06,2-1.47.42-3.38-1.28-7.84,1.5-10.51l-.49,9.99,2.98-3v4c.45.48,3.23-.73,3.75-1.26,1.39-1.45.17-4.45,3.25-3.73-2.32,6.5,1.52,1.92,2.02,5.98.87,1.01,1.98-3.93,3.97-3.99l-.99,3.99c.79-.06,1.73.17,2.43,0,1.69-.39,2.13-5.72,4.56-4.99l.5,5.99c1.86-1.24,4.65-7.47,6.99-6.99,3.12.64-.44,4.37-.44,6.34,0,1.44.48,6.31,1.47,7.64l2.49-6.99,2.98,4.99c-.04-3.41,2.83-6.19,1-9.48,2.21-2.32,4.39,5.73,4.03,7.93-.5,3.01-4.14,3.49-4.01,6.55,1.28-1.39,4.8-3.23,5.68-4.31,2.18-2.68,2.3-7.66,5.3-9.69,2.38,5.73-1.1,6.18-1.98,8.51-.51,1.36,3.39,1.87,1,5.48,3.13,1.01,1.9-2.9,3.22-3.79.56-.38,5.83-1.6,5.76.29-.02.47-4.74,7.78-3.97,8.5,1.28,1.2,2.81-.46,3.69-1.8,2.71-4.1,7.32-7.54,8.32-13.19l1,8.99c2.91-1.27,3.22-4.97,4.64-7.79.54-1.07,2.11-1.23,2.15-1.35.63-1.84-.54-4.69,2.79-8.76,3.97-4.85,2.84.9,6.41.9-.29-1.13-1.1-1.93-.84-3.25.35-1.79,8.52-13.35,10.33-14.83.74-.6,1.65-.02,2.27-.34.19-.1,1.06-3.04,3.24-1.57.42.28-2.48,2.32-2,4.47.73,1.6,2.24.55,2.8.87.16.09.09,2.97,2.18,1.61.29-.19-.78-2.93,2.02-1.96l-1.5,4.99c3.3-3.88,9.06-1.05,7.51-6.99.48-.61,3.53,3.35,3.93-2.6.21-3.12-2.71-2.87,2.05-4.4.04,1.31-.16,2.93.47,4.1.69,1.27,4.37-2.13,1.54,3.9,2.63.49,3.12-3.01,5.49-3,.81,0,1.54,6.1,4.93.94,1.1-1.67,1.16-5.91,3.88-5.76,6.79.38-2.81,6.31-.3,8.83s3.6-3.94,4.49-3.98c.15,0,2.46,1.14,2.57,1.64.67,2.98-3.53,5.01,1.93,4.35-.18-2.55-.22-4.9,1.99-6.53l-2.99-.49c2.61-9.17,3.92-1.74,4.49-2,2.29-1,4.34-5.49,4.52-7.99,4.21,1.7-.27,4.33,0,6.99,3.53.22,2.9-4.92,5.51-5.98,3.69-1.5-1.53,4.98-.51,5.98,4.06,4.01,7.11-12.75,6-14.99l2.98,4c3.14-3.49-.4-10.85.07-12.39.53-1.7,4.94-1.88,4.93-3.11,0-.35-2.93-4.36-1.97-6.5,3.75,1.99,1.86.54,3.98-1l.51,7.99,2.52-9.99,1,3.99,3-4.99,2.99,2.98c-1.97-8.05,4.17-1.11,4.63-1.06,2.82.33,3.63.69,5.95,1.07,5.66.93,4.69-4.12,5.58-4.85.59-.49,3.19.06,4.83-.66,2.84-1.26,2.57-5.36,5.51.48,1.97-.63,2.33-4.82,3.04-5.04,3.43-1.06,3.49,1.86,4.15,2.03,5.82,1.52,3.64-1.59,4.38-2.88.06-.11,1.43.69,2.43-.01,1.56-1.11,7.1-8.45,8.49-7.08-.58,4.05,2.03,3.15,3.66,4.35.6.44.74,1.64,1.4,2.09,2.53,1.71,4.23-.94,5.7,5.3,1.65,7,0,10.85,10.24,11.25l-2.99-2c2.55-4.39,5.5,2.94,9.99,1l-4-3.98c4.37-.04,7.86-.33,10.98,2.99l2-3c.17,4.01,2.77,1.4,5.09,3.38,1.64,1.41,1.69,4.8,3.9,3.55.12-.07-.35-3.68,1.52-.92,1.31,1.93,1.51,4.36,2.65,6.35.93,1.62,2.77,2.57,3.64,4.36,1.16,2.37.59,5.44,2.74,7.29,5.14-3.71,3.39.23,4.52.96.35.23,7.51-2.77,7.79-3.09.72-.82-.39-3.33.38-4.7.3-.53,2.77-.92,2.78-1.68,0-.25-2.13-1.54-1.92-2.88.29-1.84,4.31-3.13,5-4.31.6-1.04,3.77-6.68,3.91-7.07.5-1.41-.13-4.21.93-5.66.7-.95,2.58-.31,2.92-.69.52-.57,1.19-12.01,2.27-15.32.58-1.76.16-4.21,2.9-3.56-2.12,8.06,2.07,16.31,1.03,24.53-3.66,28.87-10.1,56.1-18.55,84.44-1.6,5.37-5.61,9.98-7.21,14.79-3.31,9.95-3.56,21.02-7.78,32.22-9.98,26.46-18.76,37.99-39.97,56.04-1.57,1.33-8.41,7.74-8.93,8.07-3.29,2.11-6.17-.44-8.09,5.92l-2.49-2c.86,4.19-3.72,8.89-5.49,3.99-2.89.18-2.37,3.94-3.05,4.07-2.32.46-6.01-1.75-7.52-.64s-.49,4.73-1.42,6.61-3.56,1.5-4.27,2.22c-.95.96-.6,5.28-2.21,6.3s-3.84.1-5.49.5-2.84,1.89-4.05,1.92c-1.81.05-5.31-2.69-8.5-.96l3,2c-.15,5.3-5.51,1.16-8.55,1.44-2.01.18-3.1,2.58-4.94,2.59-.85,0-.11-3.51-5.03-3.12-2.26.18-9.76,4.08-10.81,3.93-1.76-.25-4.86-4.77-6.51-3.61-.23.16-.17,1.81-.68,1.83-1.37.04-2.43-1.4-3.48-1.59-3.57-.62-3.84.31-7.91-2.12-6.41-3.84-15.63-5.75-23.39-9.36-.61-.29-.54-1.78-1.4-1.97-1.64-.36-3.65.49-5.31-.51-.98-.59-1.21-3.03-2.64-3.43-1.14-.32-2.94,1.02-3.25.83s-.6-3.22-2.81-3.79c-1.84-.48-3.59,1.09-5.27.42-1.39-.55-3.21-3.97-5.09-4.97-4.45-2.37-10.49-4.85-15-7-9.52-4.53-20.29-5.59-29.19-11.81-4.69-3.27-6.86-9.29-14.74-9.26l1.01-2c-2.08-3.77-7.5-5.05-7.99-5.57-.32-.33.99-2.13.5-2.96-1.75-2.97-8.05-4.75-8.33-5.16-.51-.74.1-2.78-.63-3.82-.77-1.1-1.79-.45-3.96-3.72-6.33-9.51-12.64-20.76-19.01-31.39-5.39-9.01-12.25-17.5-15.49-28.42-2.54-8.55-4.18-10.24-6.86-16.95-.32-.81.56-3.95-.7-5.56-.97-1.24-3.22-.74-3.51-1-.22-.2,2.23-2.7-1.51-5.05-1.23-.77-2.42.2-2.49.09-.62-1.05,1.26-4.02,1.07-5.36-.14-.99-3.47-1.25-4-3.33-.46-1.81,2.2-3.72,2.04-6.81-.13-2.6-2.15-3.21-2.11-5.51.17-.31,2.65,2.4,1.97-.47-5.18-21.79-6.29-44.64-10.24-66.77-1.48-8.34-4.57-11.58-7.27-17.73-2.52-5.72-1.92-13.1-5.31-19.7-2.16-4.21-6.62-6.59-6.18-11.33-6.04,3.32-2.06-4.99-3.02-5.98-.28-.28-2.5.32-2.87-.07-.45-.47.59-6.98-1.6-6.93s-.08,6.05-3.5,4.97c3.86-11.23-14.75-15.84-22.99-15L.09,258.37c-1.02-53.33,7.24-90.43,21.54-140.54,2.6-9.1,8.04-38.56,12.63-44.37,1.68-2.13,3.57-1.85,4.62-2.89s1.43-3.59,3.77-5.73c10.37-9.55,65.46-33.65,79.36-34.48,1.15-.07,2.03.3,3.12.48l-2,1.49c-.08.7,3.65.26,2,2.5-.23.31-6.91-2.29-7,1.49-.03,1.16,10-.6,7.01,2.49-1.48,1.53-7.99-.53-7,3.01.67.54,8.87.88,10.33,1.37,2.19.74,3.88,2.99,6.18,3.73,1.97.63,4.63-.38,5.53.32,2.58,2-1.75,7.15,4.96,5.58l-1-2.98c6.88-.68,1.39.88,4.52,4,3.39-3.23,9.38-.89,11.51-1.59,1.76-.58,3.75-3.63,5.09-4.8.7-.61,2.38-.4,2.73-.78.69-.76-.22-3.47.15-3.84.33-.33,2.79.46,3.82-.16.62-.38,2.52-6.5,2.75-7.8.24-1.38-.75-3.74-.57-3.99.26-.37,8.03-3.12,8.48-3.05.34.05,1.8,1.67,1.51,1.99ZM315.12,443.82c-.87-.95-8.69,7.33-10.22,8.34-2.1,1.39-4.63,1.46-6.33,2.62-1.88,1.28-1.97,3.51-2.46,4.04-.98,1.05-1.61-4.12-3.98-3,.91,6.29-8.3,3.02-5.53,8.02,1.97,3.56,5.22.73,8.03.89l17.49,2.08c-5.77.31-11.73-.4-17.48.02-14.49,1.06-30.99,7.15-46.12,8.88-7.06.81-15.05-.05-22.25,1.26l-9.14,16.35,3.99-.5c-5.01,3.85-1.67,6.74-2.17,10.29-.2,1.45-1.54,2.37-1.83,3.21-.11.32,4.31,1.63,2,5.48l4.99-1.99c-.55,3.31-3.93,5.09-2.98,8.99l2-3.01c9.91.54,2.68,1.52,2.97,3.47.12.83,3.27,8.6,5.02,6.53-3.19-7.37,5.12-1.89,5.02-8.99,2.3-.73,3.19,3.18,5.28,2.82.68-.12,1.5-1.32,2.4-1.45,8.23-1.13,3.14-1.03,5.94-3.43.92-.79,3.98-1.54,5.36-1.95-.99-3.59-3.57-4.07.51-6.98.89,3.63,2.51.92,5.49.99-.95-4.88-4.9-.91-.98-5.98,1.77-.29.91,4.02,2.48,3.97.9-.03,2.11-6.48,3.99-.98,2.99-1.46.97-8.87,8.49-3l1.02-4.99c2.18-.01.42,4.04,1,4.99.04.07.96-.63,1.48-.41,4.31,1.85,1.7.47,4.03-1.57,4.85-4.25,5.55,3.04,5.96,2.96,2.36-2.79,8.81-2.4,10.57-3.48,1.02-.63.56-4.08,3-2.03.75.63.71,2.78,1.45,2.52,2.33-.81,2.33-4.77,2.54-4.97.45-.43,4.97,1.26,7.22.81,3.12-.63,4.69-5.87,10.24-4.65.58.13.38,1.57,1.2,1.75,3.62.79,5.53-.34,7.75-.39,2.67-.06,5.7.93,8.55.43.29-.22-4.09-3.29,1.03-5.54,1.39-.61,2.43.54,3.35.5.64-.03,9.16-5.97,10.76-6.36,2.16-.52,4.53.38,4.74.26.38-.22.66-2.62,1.64-2.87s4.23,3.15,6.48,2c-11.66-11.37,1.03-2.19,1.99-2.99,1.98-1.65-3.45-2.82-2.99-3.98,3.34-.75,5.09-1.14,7.99.99,1.57-3.96.05-2.34-.54-3.38-3.94-6.97-.76-3.62-.39-5.21,1.02-4.38-6.47-11.69-11.42-11.36-4.67.31-4.57,3.1-7.11,4.05-6.53,2.46-20.08.86-27.52,2.89,1.38-2.05,5.34-1.67,7.71-2.78,1.54-.72,2.56-2.15,3.94-3.08,2.37-1.59,4.98-.33,1.83-5.12-1.29-1.96-2.42,1.33-4.91,1.03-1.41-.17-2.46-1.73-4.13-2-2.4-.38-7.22,1.04-10.28.34-2.53-.57-4.19-4.18-6.67-5.39l-1.48,2.99v-3Z"/>
  <path class="cls-1" d="M228.13,3.83c.26.23-.66,5.32-1.58,6.06-3.85.98-8.36-5.16-9.42-4.06.12,3.78,4.05,4.97,5.53,7.97,1.4,2.83,1.02,6.03,1.46,9.02-7.27-1.21-9.49-10.07-15.99-11.01-.3-1.89,2.41.08,1.93-2.37-1.52-7.75-5.4,1.96-6.62,2.22-4.12.9-11.79-5.7-17.3-1.83.48,1.74,3.84.81,5.94,1.54,1.25.43,2.92,2.08,4.04,2.95l-4.99,1.48,8,.02c-.56,2.02-8,4.15-8.77,3.76-.39-.2.47-2.07-2.75-1.84-2.16.15-.88,2.26-2.74,1.97-4.04-.63-5.19-4.2-8.73-4.89l1,2.98-5.99.5c1.37,2.75,7.54.86,6.99,4.5-3.08.12-7.32-1.01-10.27.05-.94.34-.69,2.13-1.2,1.96-1.04-.33-1.96-2.01-3.87-1.81-1.59.17-3.06,2.37-5.19,2.77-4.56.86-11.62.52-16.46,1.03-1.15-1.16,2.48-5.23,3.23-5.67,1-.58,15.01-1.69,18.32-2.78,1.76-.58,3.27-3.62,6.46-2.55.33-.27-1.41-2.27-.98-2.89.81-1.19,23.49-10.14,26.53-11.04,11.51-3.44,19.06-1.77,30.04,1.88,1.01.34,3.16-.16,3.41.07Z"/>
  <path class="cls-1" d="M231.73,281.24c2.92,3.91,11.8,3.58,11.39,9.58-.71.7-8.34-1.07-9.39-1.91-.94-.75-.36-2.32-.82-2.81-1.25-1.32-16.67-5.24-19.08-5.02-5.41.49-.99,9.53-4.35,11.84-1.57,1.08-22.45,3.57-25.97,3.81-2.38.17-5.22-2.44-6.4,1.08l2,1c-4.49-1.51-7.42,3.76-9.27,4.71-.29.15-5.92,1.91-6.25,1.91-.64,0-1.42-1.21-2.12-1.29-1.9-.2-5.46,2.09-2.66-2.26,1.32-2.05,14.63-11.51,17.55-13.32,17.39-10.71,35.81-16.23,55.35-7.33Z"/>
  <path class="cls-1" d="M371.13,258.83c.34.3-1.45,2.39-1.01,2.98.27.36,7.79,3.18,8.47,3.01,2.7-.69-.73-5.33,2.03-3.98,4.32,2.11,3.28,5.73,3.6,5.92,1.61.97,4.32-1.78,1.9,3.06h3.02c-2.46,4.8,3.18,1.37-1.01,6l3.01.02v3.98c-3.95.49-13.66-1.06-16.06-4.44-1.01-1.42-.78-3.27-1.53-4.47-2.37-3.82-7.88-6.69-12.42-6.08.69,4.78.71,9.26-1.14,13.87-4.37,0-25.69,3.53-25.75-1.36,0-.72,5.17-6.89,6.59-7.3,2.75-.8,12.71,1.02,13.29-1.72.32-1.54-1.17-2.24-2.5-2.48-1.78-.32-5.98,1.05-6.49-.99,8.3-4.24,17.71-2.85,25.99-6Z"/>
  <path class="cls-1" d="M306.12,398.82c-1.28,1.27-5.18-1.18-6.53-1.5-1.88-.45-4.61-1.54-4.9-1.58-2.86-.39-19.83-.26-21.11,1.06-.93.96-1.09,3.54-1.61,3.87-1.46.93-12.16.65-12.85-2.84,1.24-.36,6.54-.79,6.87-1.14,1.19-1.26-.93-4.57,5.89-7.61,9.64-4.3,18.08-2.22,26.91,2.57,1.63.89,9.61,4.9,7.33,7.16Z"/>
  <path class="cls-1" d="M236.12,18.84c.44,1.71-2.05.47-2.07,1.54-.12,5.12,6.96,3.8,9.43,6.38,1.11,1.17.5,2.9.66,3.06.38.38,8.18-1.89,9.99-.98-6.07,8.4-8.06,4.2-14.99.99-.08,1.53.21,3.59,1.26,4.73,1.55,1.69,5.83,1.23,6.73,3.25-2.46.89-12.72-2.37-12.91-4.47-.05-.57,2.04-2.34,1.98-3.98-.02-.49-1.77-.35-2.02-1.24-.36-1.29.32-2.94-.53-4.34-.76-1.26-4.12-.06-1.37-3.3,1.28-1.5,1.64-2,3.85-1.64Z"/>
  <path class="cls-1" d="M157.1,32.86c.76.77-2.05,4.39,6.02,2.97,2.67,6.92-14.32,7.7-14.96,6.99-.14-.15-.73-3.69-.55-4.07.49-1.03,2.38-1.34,3.23-2.29.44-.49.14-1.91.52-2.34.87-.98,5.23-1.79,5.74-1.28Z"/>
  <path class="cls-1" d="M215.13,23.82l-2.99.5c1.92,1.41,3.18,5.32,4.43,6.55,1.42,1.4,6.16,2.72,6.39,3.11,1.75,2.83-.69,4.65-3.41,4.78-7.95.4-2.68-5.88-3.41-6.92-.69-.98-8.26-1.18-10-1.02-.57-.53,6.36-13.96,8.99-7Z"/>
</svg>