<?xml version="1.0" encoding="UTF-8"?>
<svg id="Layer_1" data-name="Layer 1" xmlns="http://www.w3.org/2000/svg" viewBox="0 0 200 200">
  <defs>
    <style>
      .cls-1 {
        fill: #006cb7;
      }
    </style>
  </defs>
  <path class="cls-1" d="M106.15,96.1c.35-.21.35-.77.35-.86,0-.68-.54-1.34-1.36-1.7-.41.11-1,.3-1.64.68-.69.4-1.66,1.03-2.14,2.2-.2.49-.22,1.17-.1,1.62.14.44.4.9.67,1.26.83,1.13,1.15,1.26,1.71,2.01.54.74,1.33,1.8.97,2.57-.28.6-1.13.77-1.6.82-.11-.08-.65-.45-1.23-.27-.12.04-.35.1-.43.29-.15.32.19.78.37,1.01.15.19.29.33.4.42.25.16.62.34.95.46.33.09.79.18,1.18.19.39,0,.98-.12,1.4-.33.62-.38,1.29-1.29,1.38-2.18.18-1.73-.97-3.29-1.75-4.27-1.19-1.5-2.11-1.85-2.02-2.72.07-.63.64-1.32,1.26-1.43.7-.13,1.19.51,1.64.23"/>
  <g>
    <path class="cls-1" d="M103.15,24.86c-.16.84.04,3.19.11,5.35.03.47.44.82.9.79.47-.03.82-.44.79-.9s-.44-.82-.9-.79c-.47.03-.82.44-.79.9.06,1.14-.02,2.26,0,3.16.03.51.46.89.97.87.51-.03.89-.46.87-.97s-.46-.89-.97-.87c-.51.03-.89.46-.87.97.09.87.24,1.67.52,2.1.26.35.75.42,1.09.16.35-.26.42-.75.16-1.09s-.75-.42-1.09-.16c-.35.26-.42.74-.16,1.09,1.39-.43,1.36-.35,1.36-.39.09-.4-.16-.79-.56-.88-.4-.09-.79.16-.88.56-.09.4.16.79.56.88s.79-.16.88-.56c0-.05,0-.12,0-.21.09-.37-.14-.74-.51-.83-.37-.09-.74.14-.83.51-.09.37.14.74.51.83.37.09.74-.14.83-.51.01-.19.05-.46.08-.78.07-.33-.15-.64-.47-.71-.32-.07-.64.14-.71.47-.07.32.15.64.47.71.33.07.64-.14.71-.47.07-.64.14-1.51.09-2.38,0-.23-.19-.42-.42-.42-.23,0-.42.19-.43.42-.06.8-.24,1.56-.42,2.15-.09.29-.18.52-.25.7-.04.09-.07.16-.1.21-.03.06-.06.2.08.71,1.33-.78,1.31-1.37,1.31-2.2-.07-.79-.03-1.94-.14-3.18-.24-2.19-.6-4.48-.6-5.11.03-.33-.21-.62-.54-.66-.33-.03-.62.21-.66.54"/>
    <path class="cls-1" d="M107.2,26.17c.6.85,1.37,2.57.7,3.32-.78.88-2.92-.27-3.48.61-.19.3-.13.73,0,.99.31.6,2.46,1.14,1.81.92.2,0,.4,0,.6,0,.3-.04.64-.07,1-.1.36-.05.78-.13,1.15-.23.28-.09.66-.26.94-.44.28-.21.7-.74.85-1.17.13-.85-.07-1.43-.07-1.58-.02-.49-.15-.95-.25-1.27-.1-.31-.46-1.62-1.41-2.69-.22-.25-2.2-2.42-4.08-1.78-1.21.41-2.08,1.88-1.78,2.53.11.23.43.51.67.67.29.19.4.17.45.17.19-.04.25-.24.42-.5.17-.25.47-.58.72-.67.53-.18,1.34.63,1.76,1.23"/>
  </g>
  <path class="cls-1" d="M22.09,189.25c-1.32-2.58-1.36-2.56-1.46-2.87-.08-.28-.54-1.79.13-2.94.13-.23.19-.54.4-.93.27-.49.08-1.11-.41-1.37-.49-.27-1.11-.08-1.37.41-.27.49-.08,1.11.41,1.37.49.27,1.11.08,1.37-.41.51-.93,1.29-1.52,2.5-1.97.56-.23.83-.87.6-1.43s-.87-.83-1.43-.6c-.56.23-.83.87-.6,1.43.23.56.87.83,1.43.6,1.06-.46,2.83-.39,4.51-.56,2.25-.24,5.01-1.2,6.7-3.11,1.5-1.92,1.33-4.48,1.84-5.97.09-.31.21-.48.46-.83.84-1.22,1.77-2.74,2.86-3.4,1.42-1.01,3.61-.6,6.27-1.09.9-.18,1.85-.51,2.56-.76.53-.18,1.1-.32,1.73-.66,1.1-.71,1.87-2.05,2.3-3.28.43-1.22.7-2.56.95-3.57.6-2.5,1.98-4.6,4.34-6.1.44-.29.89-.37,1.59-.56,1.77-.54,3.93-.92,6.22-2,1.25-.61,2.51-1.54,3.44-2.58.94-1.12,1.39-2.57,1.68-3.95.43-1.97.93-3.33,2.17-4.22,1.34-1.13,2.71-.94,4.55-1.03,2.12-.11,5.13-.99,7.37-2.65.9-.69,1.75-1.65,2.22-2.48.26-.51.4-1.16.44-1.6.1-1.46-.05-3.32-.08-4.47-.01-.54-.01-.55-.03-.76-.09-1.21-.34-2.18-.54-2.8-.57-.11-1.01-.25-1.32-.37-.24-.09-.41-.17-.55-.09-.27.15-.21.73-.19.92.19,1.92.02,4.53-.07,5.34-.07.62-.24,1.53-.72,2.6-.23.3-.6.73-1.11,1.18-1.65,1.41-3.33,1.99-5.59,2.14-1.69.11-4.04.12-6.2,1.73-1.77,1.47-2.71,3.74-3.17,5.94-.28,1.3-.46,2.04-1.03,2.65-.7.81-1.51,1.41-2.51,1.89-1.93.95-3.86,1.26-5.81,1.86-.63.21-1.47.48-2.26,1-2.77,1.88-4.67,4.83-5.39,7.79-.25,1.07-.49,2.29-.85,3.35-.35,1.05-.64,1.69-1.14,1.92-.28.18-.61.25-1.25.47-.72.25-1.52.53-2.23.67-2.24.49-4.84.17-7.09,1.57-1.53,1.05-2.7,2.92-3.49,4.1-.27.4-.56.9-.74,1.45-.59,2-.34,4.13-1.37,5.19-1.2,1.5-3.21,2.16-5.2,2.38-1.51.17-3.54.13-5.1.74-.47.18-2.42,1.06-3.45,3.04-1.84,3.56.56,8.42,2.01,8.68.1.02.65.12.84-.14.16-.23-.04-.63-.14-.84"/>
  <path class="cls-1" d="M188.8,32.27c0,.05,0,.1,0,.12,0,0,0,1.42-.75,2.36-.31.39-.36.44-.69.74-.41.38-.44,1.02-.07,1.43.38.41,1.02.44,1.43.07.41-.38.44-1.02.07-1.43s-1.02-.44-1.43-.07c-.79.71-1.73,1.01-3.01,1.03-.61.03-1.07.55-1.04,1.15.03.61.55,1.07,1.15,1.04.61-.03,1.07-.55,1.04-1.15-.03-.61-.55-1.07-1.15-1.04-1.15.09-2.8-.57-4.44-.96-2.21-.52-5.12-.53-7.36.72-2.05,1.32-2.74,3.78-3.71,5.02-.19.26-.36.38-.71.64-1.19.87-2.58,2.01-3.83,2.27-1.68.48-3.61-.63-6.28-1.05-.91-.13-1.92-.13-2.67-.13-.56,0-1.15-.07-1.85.05-1.28.3-2.44,1.32-3.26,2.33-.81,1.01-1.51,2.18-2.08,3.06-1.39,2.16-3.39,3.69-6.11,4.32-.51.13-.97.05-1.68,0-1.85-.07-4.01-.43-6.53-.17-1.38.16-2.88.62-4.1,1.29-1.26.75-2.16,1.97-2.89,3.17-1.06,1.72-1.98,2.84-3.44,3.26-1.64.62-2.86,0-4.64-.53-2.04-.6-5.17-.76-7.83.06-1.08.35-2.2.98-2.92,1.6-.41.39-.77.96-.94,1.36-.21.48-.41.83-.5,1.06-.37.95-1.14,3.18-2.09,6.15.23.58.42.71.56.71.59,0,.66-2.3,2.21-4.95.57-.98.92-1.57,1.63-2.15,1.61-1.3,3.62-1.33,5.35-1.33,1.11,0,1.43-.23,3.68.4,1.63.45,3.85,1.22,6.43.41,2.16-.8,3.79-2.64,4.96-4.56.69-1.13,1.11-1.78,1.85-2.16.92-.53,1.89-.83,3-.95,2.13-.25,4.05.09,6.1.17.67,0,1.54.03,2.47-.2,3.24-.86,6.01-3.02,7.66-5.57.59-.93,1.22-2,1.9-2.88.68-.87,1.17-1.38,1.71-1.43.32-.08.65-.03,1.34-.03.76,0,1.61,0,2.33.11,2.27.28,4.62,1.43,7.21.86,1.79-.49,3.51-1.86,4.64-2.71.39-.29.82-.66,1.18-1.13,1.22-1.69,1.69-3.79,3-4.45,1.62-1.02,3.75-.98,5.69-.53,1.48.34,3.38,1.05,5.06.99.63-.02,2.56-.22,4.26-1.73,1.84-1.64,2.18-3.78,2.26-4.54.03-.3.3-3.46-1.28-4.32-.15-.08-.57-.31-.84-.14-.49.31.04,1.63-.05,4.27Z"/>
  <path class="cls-1" d="M86.97,123.14c-.15.42-.6.63-1.02.49-.41-.15-.63-.6-.49-1.02,12.37-34.94,24.75-69.88,37.12-104.82.11-.66.74-.98,1.14-.84.35.13.6.63.44,1.16-12.4,35.01-24.8,70.02-37.2,105.02"/>
  <path class="cls-1" d="M85.26,122.19c.15.42.6.63,1.02.49.41-.15.63-.6.49-1.02-12.37-34.94-24.75-69.88-37.12-104.82-.11-.66-.74-.98-1.14-.84-.35.13-.6.63-.44,1.16,12.4,35.01,24.8,70.02,37.2,105.02"/>
  <path class="cls-1" d="M107.35,43.59c-.55.24-.81.93-.53,1.5.41.91.93,2.39,1.47,3.79.24.59.5,1.3.8,1.92.17.35.38.76.63,1.09.27.34.83.76,1.36.91.67.12,1.46-.08,1.97-.31.5-.24,1.02-.58,1.45-.87.34-.22.74-.51.74-.51,0,0,.16-.11.34-.24.13-.09,1.19-.84,2.63-1.87.81-.37,1.03-1.26.75-1.7-.28-.43-1.14-.61-1.81-.08-3.76,2.07-5.1,2.83-5.28,2.97,0,0-.3.23-.3.22,0,0,0,0,0,0,.02.04.18.13.09,0-.11-.14-.21-.35-.37-.68-.26-.52-.51-1.17-.78-1.8-.61-1.33-1.23-2.83-1.78-3.82-.27-.52-.89-.75-1.4-.53"/>
  <path class="cls-1" d="M94.3,80.52c-.55.24-.81.93-.53,1.5.41.91.93,2.39,1.47,3.79.24.59.5,1.3.8,1.92.17.35.38.76.63,1.09.27.34.83.76,1.36.91.67.12,1.46-.08,1.97-.31.5-.24,1.02-.58,1.45-.87.34-.22.74-.51.74-.51,0,0,.16-.11.34-.24.13-.09,1.19-.84,2.63-1.87.81-.37,1.03-1.26.75-1.7-.28-.43-1.14-.61-1.81-.08-3.76,2.07-5.1,2.83-5.28,2.97,0,0-.3.23-.3.22,0,0,0,0,0,0,.02.04.18.13.09,0-.11-.14-.21-.35-.37-.68-.26-.52-.51-1.17-.78-1.8-.61-1.33-1.23-2.83-1.78-3.82-.27-.52-.89-.75-1.4-.53"/>
  <path class="cls-1" d="M76.08,74.39c.26-.54,0-1.23-.59-1.48-.91-.41-2.27-1.19-3.6-1.89-.57-.29-1.23-.64-1.87-.92-.36-.15-.79-.32-1.19-.41-.43-.08-1.13-.03-1.62.21-.58.35-1.05,1.02-1.29,1.53-.22.51-.39,1.11-.52,1.6-.11.39-.23.87-.23.87,0,0-.05.19-.1.4-.04.15-.34,1.41-.76,3.14-.37.81.05,1.62.55,1.77.49.14,1.26-.29,1.42-1.13,1.48-4.03,1.99-5.49,2.03-5.71,0,0,.08-.36.08-.36,0,0,0,0,0,0-.04-.02-.22.02-.07.06.17.03.39.12.72.27.54.22,1.15.55,1.77.84,1.33.6,2.79,1.32,3.85,1.71.55.22,1.16-.03,1.4-.52"/>
</svg>